<mxfile host="ac.draw.io" modified="2023-01-22T21:04:58.992Z" agent="5.0 (X11)" etag="38O5JjnFpvVtuMeIuuNT" version="20.8.10" type="embed"><diagram id="zN93Bb88Hu4WP1e-akx5" name="Page-1"><mxGraphModel dx="1434" dy="785" grid="1" gridSize="10" guides="1" tooltips="1" connect="1" arrows="1" fold="1" page="1" pageScale="1" pageWidth="850" pageHeight="1100" math="0" shadow="0"><root><mxCell id="0"/><mxCell id="1" parent="0"/><mxCell id="aHCo-U9GXsKX6rKWHxek-4" value="make&lt;br&gt;unique" style="edgeStyle=orthogonalEdgeStyle;rounded=0;orthogonalLoop=1;jettySize=auto;html=1;exitX=0.5;exitY=1;exitDx=0;exitDy=0;entryX=0.5;entryY=0;entryDx=0;entryDy=0;" parent="1" source="1aNa3CGKWLwABGtibB-B-1" target="aHCo-U9GXsKX6rKWHxek-1" edge="1"><mxGeometry relative="1" as="geometry"/></mxCell><mxCell id="1aNa3CGKWLwABGtibB-B-1" value="IDLE" style="ellipse;whiteSpace=wrap;html=1;" parent="1" vertex="1"><mxGeometry x="360" y="120" width="80" height="50" as="geometry"/></mxCell><mxCell id="aHCo-U9GXsKX6rKWHxek-5" style="edgeStyle=orthogonalEdgeStyle;rounded=0;orthogonalLoop=1;jettySize=auto;html=1;exitX=1;exitY=0.5;exitDx=0;exitDy=0;entryX=1;entryY=0.5;entryDx=0;entryDy=0;" parent="1" source="aHCo-U9GXsKX6rKWHxek-1" target="1aNa3CGKWLwABGtibB-B-1" edge="1"><mxGeometry relative="1" as="geometry"><Array as="points"><mxPoint x="540" y="245"/><mxPoint x="540" y="145"/></Array></mxGeometry></mxCell><mxCell id="TZ5JWKKNa3wEBqqks1_o-1" value="colliding_clean" style="edgeStyle=orthogonalEdgeStyle;rounded=0;orthogonalLoop=1;jettySize=auto;html=1;exitX=0.5;exitY=1;exitDx=0;exitDy=0;entryX=0.5;entryY=0;entryDx=0;entryDy=0;" parent="1" source="aHCo-U9GXsKX6rKWHxek-1" target="KFqKyqqExC9pPIDdHQf--1" edge="1"><mxGeometry relative="1" as="geometry"/></mxCell><mxCell id="aHCo-U9GXsKX6rKWHxek-1" value="SEND_CLEAN" style="ellipse;whiteSpace=wrap;html=1;" parent="1" vertex="1"><mxGeometry x="360" y="220" width="80" height="50" as="geometry"/></mxCell><mxCell id="yYg_t_CAPMK4JUvytcBT-2" style="edgeStyle=orthogonalEdgeStyle;rounded=0;orthogonalLoop=1;jettySize=auto;html=1;exitX=0.5;exitY=1;exitDx=0;exitDy=0;entryX=0.5;entryY=0;entryDx=0;entryDy=0;" edge="1" parent="1" source="KFqKyqqExC9pPIDdHQf--1" target="yYg_t_CAPMK4JUvytcBT-1"><mxGeometry relative="1" as="geometry"/></mxCell><mxCell id="KFqKyqqExC9pPIDdHQf--1" value="MISS" style="ellipse;whiteSpace=wrap;html=1;" parent="1" vertex="1"><mxGeometry x="360" y="310" width="80" height="50" as="geometry"/></mxCell><mxCell id="TZ5JWKKNa3wEBqqks1_o-6" style="edgeStyle=orthogonalEdgeStyle;rounded=0;orthogonalLoop=1;jettySize=auto;html=1;exitX=1;exitY=0.5;exitDx=0;exitDy=0;entryX=1;entryY=0.5;entryDx=0;entryDy=0;" parent="1" source="TZ5JWKKNa3wEBqqks1_o-4" target="1aNa3CGKWLwABGtibB-B-1" edge="1"><mxGeometry relative="1" as="geometry"><Array as="points"><mxPoint x="540" y="495"/><mxPoint x="540" y="145"/></Array></mxGeometry></mxCell><mxCell id="TZ5JWKKNa3wEBqqks1_o-4" value="SAVE&lt;br&gt;CACHELINE" style="ellipse;whiteSpace=wrap;html=1;" parent="1" vertex="1"><mxGeometry x="360" y="470" width="80" height="50" as="geometry"/></mxCell><mxCell id="yYg_t_CAPMK4JUvytcBT-3" style="edgeStyle=orthogonalEdgeStyle;rounded=0;orthogonalLoop=1;jettySize=auto;html=1;exitX=0.5;exitY=1;exitDx=0;exitDy=0;entryX=0.5;entryY=0;entryDx=0;entryDy=0;" edge="1" parent="1" source="yYg_t_CAPMK4JUvytcBT-1" target="TZ5JWKKNa3wEBqqks1_o-4"><mxGeometry relative="1" as="geometry"/></mxCell><mxCell id="yYg_t_CAPMK4JUvytcBT-1" value="REQ&lt;br&gt;CACHELINE" style="ellipse;whiteSpace=wrap;html=1;" vertex="1" parent="1"><mxGeometry x="360" y="390" width="80" height="50" as="geometry"/></mxCell></root></mxGraphModel></diagram></mxfile>